<?xml version="1.0" encoding="UTF-8"?>
<svg id="Layer_2" data-name="Layer 2" xmlns="http://www.w3.org/2000/svg" viewBox="0 0 615.03 254.71">
  <defs>
    <style>
      .cls-1 {
        fill: #163b66;
      }

      .cls-1, .cls-2, .cls-3, .cls-4, .cls-5 {
        stroke-width: 0px;
      }

      .cls-2 {
        fill: #f21413;
      }

      .cls-3 {
        fill: #fff;
      }

      .cls-4 {
        fill: #0e4789;
      }

      .cls-5 {
        fill: #f79f1f;
      }
    </style>
  </defs>
  <g id="SUBTEXTO">
    <g id="GAD_PROVINCIAL">
      <path id="G" class="cls-2" d="m149.42,208.29l-5.36,4.84c-1.5-1.51-3.31-2.26-5.43-2.26-2.28,0-4.23.77-5.85,2.32-1.62,1.55-2.43,3.42-2.43,5.62,0,1.84.58,3.35,1.73,4.51s2.67,1.75,4.54,1.75c1.54,0,3.09-.4,4.64-1.19l.46-2.65h-4.56l.91-5.3h11.36l-2.05,12.13c-3.67,2.53-7.44,3.8-11.29,3.8-3.8.05-6.98-1.14-9.54-3.59-2.56-2.44-3.81-5.47-3.76-9.08-.05-2.66.66-5.16,2.13-7.48s3.47-4.17,6-5.53c2.53-1.36,5.24-2.01,8.13-1.96,4.36,0,7.81,1.36,10.37,4.07Z"/>
      <path id="A" class="cls-2" d="m171.76,231.47l-.87-4.72h-10.22l-2.47,4.72h-8.66l15.2-26.86h9.39l5.89,26.86h-8.25Zm-8.02-10.52h6.12l-1.6-8.6-4.52,8.6Z"/>
      <path id="D" class="cls-2" d="m188.33,204.61h10.79c3.6-.05,6.64,1.12,9.12,3.51,2.48,2.39,3.7,5.38,3.65,8.96.08,4.02-1.44,7.43-4.56,10.25s-6.93,4.2-11.44,4.14h-12.24l4.67-26.86Zm9.88,6.45h-3.8l-2.43,13.97h4.37c2.2,0,4.1-.77,5.7-2.3,1.6-1.54,2.39-3.35,2.39-5.45,0-1.82-.6-3.3-1.79-4.45-1.17-1.18-2.65-1.77-4.45-1.77Z"/>
      <path id="P" class="cls-2" d="m228.23,204.61h10.87c3.8,0,6.6.72,8.4,2.17,1.8,1.45,2.7,3.73,2.7,6.85,0,6.83-4.32,10.25-12.96,10.25h-5.17l-1.33,7.6h-7.18l4.67-26.86Zm10.34,6.26h-4.18l-1.14,6.79h4.45c1.75,0,3.01-.29,3.8-.86.79-.58,1.18-1.54,1.18-2.9,0-1.13-.31-1.91-.93-2.36-.62-.45-1.68-.67-3.17-.67Z"/>
      <path id="R" class="cls-2" d="m271.89,222.68l3.99,8.79h-7.83l-3.46-8.1h-4.64l-1.41,8.1h-7.18l4.67-26.86h11.63c3.5,0,6.21.77,8.15,2.3s2.91,3.68,2.91,6.45c0,4.99-2.28,8.1-6.84,9.33Zm-9.73-11.86l-1.18,6.6h5.66c1.62,0,2.81-.29,3.55-.86.75-.58,1.12-1.46,1.12-2.67,0-1.07-.32-1.85-.95-2.34-.63-.49-1.65-.73-3.04-.73h-5.17Z"/>
      <path id="O" class="cls-2" d="m281.23,219.04c-.1-4.02,1.41-7.51,4.52-10.48,3.12-2.97,6.79-4.41,11.02-4.34,3.9,0,7.11,1.2,9.61,3.59,2.51,2.39,3.76,5.44,3.76,9.15.08,4.07-1.43,7.59-4.52,10.55-3.09,2.97-6.75,4.41-10.98,4.34-3.83.05-7.03-1.16-9.61-3.63-2.58-2.47-3.85-5.53-3.8-9.19Zm21.35-1.57c0-1.87-.6-3.41-1.8-4.62-1.2-1.21-2.72-1.82-4.54-1.82-2.03,0-3.77.74-5.24,2.23-1.47,1.48-2.2,3.26-2.2,5.33,0,1.84.6,3.38,1.81,4.62,1.2,1.24,2.72,1.86,4.54,1.86,2.03,0,3.77-.74,5.24-2.23,1.47-1.48,2.2-3.27,2.2-5.37Z"/>
      <path id="V" class="cls-2" d="m334.85,204.61h8.66l-14.82,26.86h-9.39l-5.4-26.86h8.25l3.08,18.96,9.61-18.96Z"/>
      <path id="I" class="cls-2" d="m354.34,204.61l-4.67,26.86h-7.18l4.67-26.86h7.18Z"/>
      <path id="N" class="cls-2" d="m377.9,204.61h6.99l-4.67,26.86h-7.33l-8.13-15.16-2.62,15.16h-7.07l4.67-26.86h7.41l8.09,15.16,2.66-15.16Z"/>
      <path id="C" class="cls-2" d="m413.96,210.21l-6.46,3.49c-.46-.82-1.17-1.47-2.15-1.96-.98-.49-2.03-.73-3.17-.73-2.08,0-3.86.75-5.34,2.25-1.48,1.5-2.22,3.31-2.22,5.43,0,1.82.57,3.33,1.71,4.55,1.14,1.21,2.55,1.82,4.22,1.82,2.2,0,4.18-.92,5.93-2.76l5.28,4.11c-3.24,3.63-7.13,5.45-11.67,5.45-3.65.05-6.74-1.19-9.29-3.72s-3.79-5.56-3.74-9.1c-.05-2.58.64-5.03,2.07-7.35,1.43-2.31,3.36-4.15,5.79-5.51,2.43-1.36,5-2.01,7.71-1.96,2.51,0,4.77.54,6.8,1.61,2.08,1.07,3.58,2.53,4.52,4.38Z"/>
      <path id="I-2" data-name="I" class="cls-2" d="m426.31,204.61l-4.67,26.86h-7.18l4.67-26.86h7.18Z"/>
      <path id="A-2" data-name="A" class="cls-2" d="m447.47,231.47l-.87-4.72h-10.22l-2.47,4.72h-8.66l15.2-26.86h9.38l5.89,26.86h-8.25Zm-8.02-10.52h6.12l-1.6-8.6-4.52,8.6Z"/>
      <path id="L" class="cls-2" d="m471.22,204.61l-3.53,20.38h13l-1.14,6.49h-20.18l4.67-26.86h7.18Z"/>
    </g>
    <g id="ADMINISTRACION20242027">
      <g>
        <path id="A-3" data-name="A" class="cls-4" d="m134.64,254.48l-.8-3.55h-7.55l-1.99,3.55h-3.36l9.25-16.16h3.78l3.83,16.16h-3.17Zm-6.95-6.05h5.58l-1.59-7.08-3.98,7.08Z"/>
        <path id="D-2" data-name="D" class="cls-4" d="m143.34,238.32h6.02c2.01-.03,3.73.67,5.17,2.11,1.44,1.44,2.14,3.19,2.09,5.25.03,1.55-.36,3.01-1.17,4.37-.81,1.36-1.93,2.45-3.35,3.25-1.42.81-2.97,1.2-4.64,1.17h-6.84l2.72-16.16Zm5.71,2.7h-3.28l-1.81,10.75h3.59c1.62.03,3.05-.57,4.27-1.81,1.22-1.24,1.82-2.65,1.79-4.24,0-1.38-.43-2.52-1.28-3.39s-1.95-1.32-3.28-1.32Z"/>
        <path id="M" class="cls-4" d="m176.21,238.32h3.7l-2.72,16.16h-2.86l2.01-12.02-7.46,10.13h-1.06l-4.21-10.5-2.08,12.39h-2.79l2.72-16.16h3.81l3.87,9.53,7.06-9.53Z"/>
        <path id="I-3" data-name="I" class="cls-4" d="m186.94,238.32l-2.72,16.16h-2.88l2.72-16.16h2.88Z"/>
        <path id="N-2" data-name="N" class="cls-4" d="m202.35,238.32h2.81l-2.72,16.16h-2.97l-6.29-11.56-1.97,11.56h-2.83l2.72-16.16h2.99l6.29,11.56,1.97-11.56Z"/>
        <path id="I-4" data-name="I" class="cls-4" d="m212.19,238.32l-2.72,16.16h-2.88l2.72-16.16h2.88Z"/>
        <path id="S" class="cls-4" d="m228.09,239.84l-1.48,2.26c-.65-.42-1.47-.75-2.46-1.02-.97-.26-1.87-.39-2.68-.39-.99,0-1.77.19-2.36.57-.58.38-.87.88-.87,1.51.04.48.28.84.71,1.1.43.25,1.37.6,2.83,1.05,2.08.66,3.45,1.28,4.11,1.86.66.58,1.01,1.51,1.07,2.8,0,1.51-.6,2.74-1.81,3.69s-2.77,1.43-4.69,1.43c-2.77,0-5.22-.69-7.33-2.08l1.51-2.33c.8.55,1.72.99,2.76,1.3,1.04.32,2.06.47,3.07.47s1.89-.2,2.53-.61c.64-.41.96-.93.96-1.58-.04-.6-.28-1.04-.7-1.32-.42-.28-1.38-.63-2.89-1.06-1.92-.57-3.26-1.17-4.04-1.79-.77-.62-1.16-1.5-1.16-2.62,0-1.49.6-2.7,1.81-3.62,1.21-.92,2.76-1.38,4.65-1.38,2.55,0,4.71.58,6.46,1.75Z"/>
        <path id="T" class="cls-4" d="m243.36,238.32l-.42,2.63h-4.89l-2.3,13.52h-2.88l2.28-13.52h-4.94l.42-2.63h12.73Z"/>
        <path id="R-2" data-name="R" class="cls-4" d="m254.71,248.78l2.61,5.7h-3.23l-2.41-5.35h-4.43l-.91,5.35h-2.88l2.72-16.16h6.55c4.09,0,6.13,1.67,6.13,5.01,0,2.91-1.39,4.72-4.16,5.45Zm1.13-5.35c0-.89-.25-1.53-.74-1.9-.49-.38-1.3-.57-2.42-.57h-4.03l-.95,5.58h4.07c2.71,0,4.07-1.04,4.07-3.12Z"/>
        <path id="A-4" data-name="A" class="cls-4" d="m272.91,254.48l-.8-3.55h-7.55l-1.99,3.55h-3.36l9.25-16.16h3.78l3.83,16.16h-3.17Zm-6.95-6.05h5.58l-1.59-7.08-3.98,7.08Z"/>
        <path id="C-2" data-name="C" class="cls-4" d="m294.27,241.46l-2.59,1.48c-.4-.62-.94-1.11-1.63-1.48-.69-.37-1.44-.55-2.27-.55-1.59-.03-2.99.57-4.19,1.8-1.2,1.23-1.79,2.66-1.76,4.29,0,1.37.44,2.53,1.32,3.47.88.95,1.95,1.42,3.22,1.42,1.58,0,3.03-.69,4.36-2.08l2.1,1.73c-1.93,2.11-4.15,3.16-6.66,3.16-2.05.05-3.8-.69-5.25-2.2-1.45-1.51-2.15-3.33-2.12-5.43-.03-1.57.37-3.05,1.21-4.45.83-1.4,1.96-2.51,3.39-3.33s2.93-1.22,4.53-1.19c1.39,0,2.65.3,3.77.9,1.13.6,1.99,1.42,2.58,2.47Z"/>
        <path id="I-5" data-name="I" class="cls-4" d="m300.88,238.32l-2.72,16.16h-2.88l2.72-16.16h2.88Z"/>
        <path id="O-2" data-name="O" class="cls-4" d="m302.99,247.21c-.03-1.58.38-3.09,1.23-4.51.85-1.42,1.99-2.55,3.42-3.39,1.43-.84,2.94-1.24,4.54-1.21,2.15-.03,3.95.67,5.4,2.1,1.45,1.43,2.15,3.22,2.12,5.35.03,1.6-.38,3.12-1.23,4.55-.85,1.43-1.98,2.57-3.41,3.4s-2.93,1.24-4.53,1.21c-2.14.03-3.94-.68-5.4-2.12s-2.18-3.24-2.15-5.38Zm13.68-1.45c0-1.38-.45-2.54-1.34-3.46-.89-.92-2-1.38-3.33-1.38-1.56-.03-2.95.58-4.17,1.83-1.22,1.25-1.81,2.68-1.78,4.28,0,1.38.45,2.54,1.34,3.47.89.93,2.01,1.4,3.35,1.4,1.55.05,2.93-.57,4.15-1.83,1.22-1.27,1.81-2.7,1.78-4.3Zm.31-12.53l-3.45,3.79h-2.39l2.94-3.79h2.9Z"/>
        <path id="N-3" data-name="N" class="cls-4" d="m335.79,238.32h2.81l-2.72,16.16h-2.97l-6.29-11.56-1.97,11.56h-2.83l2.72-16.16h2.99l6.29,11.56,1.97-11.56Z"/>
        <path id="_2" data-name="2" class="cls-4" d="m354.09,248.18l-4.82,3.72h7.15l-.44,2.58h-11.6l.4-2.29,7.66-5.79c.84-.66,1.42-1.21,1.73-1.64.31-.43.46-.89.46-1.38,0-.66-.21-1.18-.63-1.56-.42-.38-1-.57-1.74-.57-1.48,0-2.88.76-4.23,2.28l-1.64-1.75c.86-1.03,1.83-1.83,2.92-2.39,1.09-.56,2.21-.84,3.34-.84,1.43,0,2.61.42,3.54,1.27.93.85,1.39,1.92,1.39,3.23,0,.91-.27,1.75-.81,2.54-.54.79-1.43,1.65-2.69,2.58Z"/>
        <path id="_0" data-name="0" class="cls-4" d="m373.15,245.36c.03,2.69-.72,4.93-2.26,6.72-1.54,1.79-3.47,2.66-5.8,2.63-1.89,0-3.36-.6-4.42-1.79s-1.58-2.87-1.58-5.02c-.03-2.68.72-4.91,2.26-6.71,1.53-1.79,3.47-2.67,5.8-2.64,1.89,0,3.36.6,4.42,1.79,1.06,1.19,1.58,2.87,1.58,5.02Zm-11.13,2.4c0,1.34.29,2.37.86,3.1.58.73,1.39,1.1,2.46,1.1,1.4,0,2.56-.62,3.49-1.85.92-1.23,1.38-2.78,1.38-4.64,0-1.34-.29-2.37-.86-3.1-.58-.73-1.38-1.1-2.41-1.1-1.42,0-2.59.62-3.52,1.86-.93,1.24-1.39,2.78-1.39,4.63Z"/>
        <path id="_2-2" data-name="2" class="cls-4" d="m383.35,248.18l-4.82,3.72h7.15l-.44,2.58h-11.6l.4-2.29,7.66-5.79c.84-.66,1.42-1.21,1.73-1.64.31-.43.46-.89.46-1.38,0-.66-.21-1.18-.63-1.56-.42-.38-1-.57-1.74-.57-1.48,0-2.88.76-4.23,2.28l-1.64-1.75c.86-1.03,1.83-1.83,2.92-2.39,1.09-.56,2.21-.84,3.34-.84,1.43,0,2.61.42,3.54,1.27.93.85,1.39,1.92,1.39,3.23,0,.91-.27,1.75-.81,2.54-.54.79-1.43,1.65-2.69,2.58Z"/>
        <path id="_3" data-name="3" class="cls-4" d="m400.66,238.78l-.38,2.22-5,4.18h.16c1.22,0,2.21.37,2.94,1.12.74.75,1.11,1.74,1.11,2.97,0,1.57-.63,2.87-1.88,3.9-1.25,1.03-2.86,1.55-4.8,1.55-2.05,0-3.86-.68-5.42-2.03l1.97-2.08c1.08.98,2.33,1.48,3.76,1.48,1.02,0,1.85-.27,2.5-.8.65-.53.97-1.2.97-2.02,0-.66-.22-1.17-.67-1.52-.45-.35-1.1-.53-1.94-.53-.61,0-1.43.13-2.48.39l-.27-1.75,5.31-4.5h-6.49l.44-2.56h10.16Z"/>
        <path id="_-" data-name="-" class="cls-4" d="m415.03,247.32l-.4,2.33h-7.64l.4-2.33h7.64Z"/>
        <path id="_2-3" data-name="2" class="cls-4" d="m430.81,248.18l-4.82,3.72h7.15l-.44,2.58h-11.6l.4-2.29,7.66-5.79c.84-.66,1.42-1.21,1.73-1.64.31-.43.46-.89.46-1.38,0-.66-.21-1.18-.63-1.56-.42-.38-1-.57-1.74-.57-1.48,0-2.88.76-4.23,2.28l-1.64-1.75c.86-1.03,1.83-1.83,2.92-2.39,1.09-.56,2.21-.84,3.34-.84,1.43,0,2.61.42,3.54,1.27.93.85,1.39,1.92,1.39,3.23,0,.91-.27,1.75-.81,2.54-.54.79-1.43,1.65-2.69,2.58Z"/>
        <path id="_0-2" data-name="0" class="cls-4" d="m449.86,245.36c.03,2.69-.72,4.93-2.26,6.72-1.54,1.79-3.47,2.66-5.8,2.63-1.89,0-3.36-.6-4.42-1.79s-1.58-2.87-1.58-5.02c-.03-2.68.72-4.91,2.26-6.71,1.53-1.79,3.47-2.67,5.8-2.64,1.89,0,3.36.6,4.42,1.79,1.06,1.19,1.58,2.87,1.58,5.02Zm-11.13,2.4c0,1.34.29,2.37.86,3.1.58.73,1.39,1.1,2.46,1.1,1.4,0,2.56-.62,3.49-1.85.92-1.23,1.38-2.78,1.38-4.64,0-1.34-.29-2.37-.86-3.1-.58-.73-1.38-1.1-2.41-1.1-1.42,0-2.59.62-3.52,1.86-.93,1.24-1.39,2.78-1.39,4.63Z"/>
        <path id="_2-4" data-name="2" class="cls-4" d="m460.07,248.18l-4.82,3.72h7.15l-.44,2.58h-11.6l.4-2.29,7.66-5.79c.84-.66,1.42-1.21,1.73-1.64.31-.43.46-.89.46-1.38,0-.66-.21-1.18-.63-1.56-.42-.38-1-.57-1.74-.57-1.48,0-2.88.76-4.23,2.28l-1.64-1.75c.86-1.03,1.83-1.83,2.92-2.39,1.09-.56,2.21-.84,3.34-.84,1.43,0,2.61.42,3.54,1.27.93.85,1.39,1.92,1.39,3.23,0,.91-.27,1.75-.81,2.54-.54.79-1.43,1.65-2.69,2.58Z"/>
        <path id="_4" data-name="4" class="cls-4" d="m466.16,238.78h11.38l-.42,2.4-9.45,13.29h-3.3l9.45-13.06h-8.1l.44-2.63Z"/>
      </g>
    </g>
  </g>
  <g id="COGS">
    <g id="COG_SHADOW">
      <circle id="cog_shadow2" class="cls-1" cx="415.85" cy="46.31" r="12.16" transform="translate(319.07 453.39) rotate(-82.98)"/>
      <path id="cog_shadow1" class="cls-1" d="m452.61,47.97c.02-.54.04-1.08.04-1.63,0-2.32-.23-4.59-.64-6.8l8.59-7.7c-1.47-4.53-3.61-8.76-6.3-12.58l-11.31,2.23c-1.9-2.07-4.04-3.93-6.36-5.52l.63-11.51c-4.13-2.12-8.62-3.64-13.35-4.46l-6.42,9.58c-.54-.02-1.09-.04-1.64-.04-2.31,0-4.56.22-6.75.63l-7.7-8.6c-4.54,1.46-8.77,3.6-12.59,6.29l2.23,11.3c-2.08,1.9-3.93,4.03-5.53,6.36l-11.52-.63c-2.12,4.13-3.64,8.61-4.47,13.34l9.57,6.42c-.03.56-.04,1.12-.04,1.69,0,2.31.22,4.56.63,6.75l-8.6,7.7c1.46,4.53,3.59,8.76,6.28,12.57l11.3-2.23c1.91,2.09,4.06,3.96,6.4,5.57l-.63,11.51c4.13,2.11,8.6,3.64,13.32,4.45l6.42-9.57c.56.02,1.11.04,1.68.04,2.32,0,4.59-.23,6.8-.64l7.7,8.59c4.53-1.47,8.75-3.6,12.56-6.29l-2.23-11.31c2.09-1.91,3.96-4.06,5.56-6.41l11.51.63c2.11-4.13,3.63-8.61,4.45-13.34l-9.58-6.42Zm-36.76,19.24c-11.54,0-20.9-9.36-20.9-20.9s9.36-20.9,20.9-20.9,20.9,9.36,20.9,20.9-9.36,20.9-20.9,20.9Z"/>
    </g>
    <g id="COG">
      <circle id="cog2" class="cls-5" cx="411.23" cy="51.08" r="12.16" transform="translate(310.29 452.98) rotate(-82.98)"/>
      <path id="cog1" class="cls-5" d="m447.99,52.74c.02-.54.04-1.08.04-1.63,0-2.32-.23-4.59-.64-6.8l8.59-7.7c-1.47-4.53-3.61-8.76-6.3-12.58l-11.31,2.23c-1.9-2.07-4.04-3.93-6.36-5.52l.63-11.51c-4.13-2.12-8.62-3.64-13.35-4.46l-6.42,9.58c-.54-.02-1.09-.04-1.64-.04-2.31,0-4.56.22-6.75.63l-7.7-8.6c-4.54,1.46-8.77,3.6-12.59,6.29l2.23,11.3c-2.08,1.9-3.93,4.03-5.53,6.36l-11.52-.63c-2.12,4.13-3.64,8.61-4.47,13.34l9.57,6.42c-.03.56-.04,1.12-.04,1.69,0,2.31.22,4.56.63,6.75l-8.6,7.7c1.46,4.53,3.59,8.76,6.28,12.57l11.3-2.23c1.91,2.09,4.06,3.96,6.4,5.57l-.63,11.51c4.13,2.11,8.6,3.64,13.32,4.45l6.42-9.57c.56.02,1.11.04,1.68.04,2.32,0,4.59-.23,6.8-.64l7.7,8.59c4.53-1.47,8.75-3.6,12.56-6.29l-2.23-11.31c2.09-1.91,3.96-4.06,5.56-6.41l11.51.63c2.11-4.13,3.63-8.61,4.45-13.34l-9.58-6.42Zm-36.76,19.24c-11.54,0-20.9-9.36-20.9-20.9s9.36-20.9,20.9-20.9,20.9,9.36,20.9,20.9-9.36,20.9-20.9,20.9Z"/>
    </g>
  </g>
  <g id="NEVADO">
    <path id="monte" class="cls-4" d="m111.15,157.59c0-11.53,4.55-25.3,17.65-33.88,7.41-4.85,32.71-13.65,52.24-23.29s26.82-8.71,35.06-15.06,18.59-15.29,25.88-21.65c7.29-6.35,20.04-22.91,26-26.71,4.21-2.68,6.47-.12,14.71-.59s10.59-4.71,20.94-4.24,43.29,25.88,53.41,25.18,13.65-4.47,21.88-4.47,11.76,8.94,25.65,10.59c13.88,1.65,11.06-.94,17.65,0,6.59.94,44,48.71,88,52,44,3.29,46.59,15.29,62.82,17.65,16.24,2.35,29.88,14.59,29.88,24.47s-31.29,13.88-73.18,13.88-370.59-2.12-395.76-2.12-22.82-1.65-22.82-11.76Z"/>
    <g id="BLANCO">
      <path id="snow" class="cls-3" d="m230.62,79.33c1.64-4.51,15.53-13.59,20.74-19.06,3.93-4.13,14.51-16.41,17.56-18.53,4.76-3.31,7.27-.88,14.34-1.5,9.49-.84,15.49-6.79,24.97-2.78s36.2,23.67,49.37,23.69c6.25,0,14.62-4.15,20.74-4.06,4.23.06,9.68,3.79,13.25,6.15,3.38,2.23-24.81,12.12-27.98,12.03s-13.5-9.53-14.47-7.59,1.94,9.18-1.15,9.53-12.62-17.12-14.12-15.97-2.29,9.26-3.88,8.91-1.5-12.53-3.71-9.88-2.82,5.74-4.59,5.65-10.68-7.59-12.88-7.32-3.97,5.03-5.29,4.59-7.5-14.21-10.32-13.76-7.68,14.91-11.03,14.91-3.79-5.21-5.82-5.21-5.29,7.15-8.82,6.97-3.35-5.38-5.47-5.03-6.44,7.85-11.03,10.94-16.4,6.31-20.38,7.32Z"/>
      <path id="snow2" class="cls-3" d="m407.53,67.36c4.91-.12,10.91.12,14.09,0s23.41,19.88,29.06,23.06-2,2-5.88-1.88c-3.88-3.88-3.29-4.94-5.18-4.71s.71,4.47-1.65,3.29-3.28-4.12-5.35-5.06-4.42-.24-5.24-.71-.82-6.12-2.47-5.88c-2.06.29-5.12,5-6.79,5-1.96,0-1.21-6.88-2.74-6.88s-6.24,2.32-8.47,2.56-1.22-8.75.62-8.79Z"/>
      <path id="vicuna" class="cls-3" d="m215.97,123c-1.6-1.6-2.24-5.65.82-9.18s3.53.94,5.53-.94,4.82-6.35,10.12-6.35,21.53-.35,24.35,0,5.65,2.94,8.47,3.53,4.26-.18,4.26-5.24.97-12.79.97-14.56c0-2.65,4.06-4.44,3.94-6.21s1.29-3.88,1.29-4.94c0-.6,1.16-.32,1.21,2.32.02,1.16,1.23,1.65,1.06,3.04,5.6,2.25,9.36,2.29,9.26,4.24-.13,2.78-.26,3.79-6.88,4.99-.18,3.53.06,8.35-.18,12.47s-5.88,9.41-4.47,11.41,1.06,7.65-2.59,9.65-52.24.71-57.18-4.24Z"/>
    </g>
    <g id="CAMINO">
      <path id="camino_outline" class="cls-3" d="m271.21,131.3c24.32-14.41,117.62-59.94,131.74-68.06-9.12,34.94-17.56,82.18-21.27,88.53-3.71,6.35-114.12-18.31-110.47-20.47Z"/>
      <path id="camino" class="cls-1" d="m263.15,148.18c24.32-14.41,125.68-76.82,139.8-84.94-15.56,36.47-39.33,92.23-42.15,102.12-14.35-1.41-82.35-14.12-97.65-17.18Z"/>
      <g id="LINEAS">
        <polygon id="line1" class="cls-5" points="345.5 124.68 366.88 101.82 359.12 101.46 332.56 124.55 345.5 124.68"/>
        <polygon id="line2" class="cls-5" points="379.44 83.79 369.56 92.38 375.52 92.57 383.75 83.77 379.44 83.79"/>
        <polygon id="line3" class="cls-5" points="391.34 73.44 385.59 78.44 388.65 78.53 393.41 73.44 391.34 73.44"/>
        <polygon id="line4" class="cls-5" points="398.1 67.56 395.37 69.93 396.74 69.91 398.92 67.58 398.1 67.56"/>
        <polygon id="line5" class="cls-5" points="401.74 64.43 399.96 65.86 400.41 65.86 401.79 64.43 401.74 64.43"/>
      </g>
    </g>
  </g>
  <g id="CHIMBORAZO">
    <path id="chimborazo_outline" class="cls-3" d="m605.37,130.54c-6.18-6.3-14.04-9.61-23.38-9.87h0s-.41,0-.41,0c-.24,0-.47-.02-.72-.02-.82-.02-1.62,0-2.43.04l-48,.3-32.82.21-16.94.11-32.59.2h0s-.04,0-.04,0l-12.6,23.82-8.8-.15c-.44-7.08-3.19-12.82-8.18-17.05-5.18-4.39-12.27-6.62-21.07-6.62h-29.63l-4.16,25.59c-1.34-6.38-4.28-11.93-8.82-16.56-6.42-6.55-14.67-9.88-24.51-9.9-10.57-.18-19.86,3.71-27.59,11.58-2.3,2.34-4.23,4.82-5.83,7.42-.44-5.32-2.84-9.82-7.03-13.09-4.27-3.35-9.89-5.04-16.69-5.04h-62.46l-14.31,19.71-7.82-19.71h-81.41s-66.87-.84-66.87-.84v.02c-.45-.01-.88-.04-1.31-.04-6.82-.12-13.34,1.65-19.41,5.26-6,3.58-10.82,8.48-14.35,14.57C1.64,146.62-.1,153.21,0,160.08c-.11,9.5,3.1,17.78,9.53,24.61,6.42,6.83,14.33,10.29,23.43,10.29.18,0,.36,0,.54,0,9.32,0,17.6-3.26,24.69-9.71l-1.44,8.84h27.31l3.77-23.12h10.69l-3.77,23.12h79.98l3.62-22.3,5.53,14.25h12.33l8.62-12.08-3.3,20.13h65.99c7.9,0,14.41-2.13,19.33-6.33,3.97-3.39,6.48-7.8,7.42-12.93,1.61,3.71,3.91,7.1,6.88,10.14,6.6,6.74,14.85,10.11,24.56,9.99.23,0,.46,0,.7,0,10.28,0,19.29-3.9,26.79-11.6,2.23-2.29,4.12-4.71,5.68-7.26l-2.93,18h27.31l2.97-18.27h.61l7.29,18.27h47.49l5.21-10.65h12.77l1.84,10.65h82.12l2.73-16.39c1.45,2.6,3.27,5.03,5.46,7.27,6.6,6.74,14.91,10.1,24.56,9.99.23,0,.46,0,.7,0,10.28,0,19.29-3.9,26.79-11.6,7.63-7.84,11.42-17.28,11.24-28.05-.01-9.93-3.26-18.28-9.65-24.8Z"/>
    <g id="LETRAS">
      <g>
        <path id="C-3" data-name="C" class="cls-4" d="m62.76,140.15l-13.63,7.88c-.96-1.85-2.47-3.32-4.53-4.42-2.06-1.1-4.29-1.65-6.69-1.65-4.38,0-8.14,1.69-11.26,5.06s-4.69,7.46-4.69,12.25c0,4.1,1.2,7.52,3.61,10.26,2.41,2.74,5.37,4.11,8.9,4.11,4.65,0,8.82-2.08,12.51-6.23l11.14,9.26c-6.84,8.2-15.05,12.29-24.61,12.29-7.7.12-14.23-2.68-19.6-8.4-5.37-5.71-8-12.55-7.9-20.52-.11-5.83,1.35-11.36,4.37-16.58,3.02-5.22,7.1-9.36,12.23-12.42,5.13-3.06,10.55-4.53,16.27-4.42,5.29,0,10.07,1.21,14.35,3.64,4.38,2.42,7.56,5.71,9.54,9.87Z"/>
        <path id="H" class="cls-4" d="m126.74,127.51l-9.86,60.61h-15.07l3.77-23.12h-22.85l-3.77,23.12h-15.15l9.86-60.61h15.15l-3.69,22.86h22.85l3.69-22.86h15.07Z"/>
        <path id="I-6" data-name="I" class="cls-4" d="m153.27,127.51l-9.86,60.61h-15.15l9.86-60.61h15.15Z"/>
        <path id="M-2" data-name="M" class="cls-4" d="m213.72,127.51h19.64l-9.86,60.61h-14.91l6.33-38.62-21.81,30.56h-5.13l-12.03-31-6.33,39.05h-14.83l9.86-60.61h19.8l10.34,26.06,18.92-26.06Z"/>
        <path id="B" class="cls-4" d="m288.68,170.2c0,5.43-1.91,9.77-5.73,13.03-3.82,3.26-8.97,4.89-15.43,4.89h-32.63l9.86-60.61h28.38c5.45,0,9.78,1.26,12.99,3.77,3.21,2.51,4.81,5.9,4.81,10.17,0,7.5-3.5,12.53-10.5,15.06,5.5,2.42,8.26,6.98,8.26,13.68Zm-15.39-1.56c0-1.79-.62-3.17-1.84-4.16-1.23-.98-2.89-1.47-4.97-1.47h-12.27l-2,11.78h13.55c2.3,0,4.13-.56,5.49-1.69s2.04-2.61,2.04-4.46Zm-15.55-27.79l-1.76,11h11.06c2.46,0,4.34-.52,5.65-1.56,1.31-1.04,1.96-2.51,1.96-4.42,0-3.35-2.11-5.02-6.33-5.02h-10.58Z"/>
        <path id="O-3" data-name="O" class="cls-4" d="m297.41,160.07c-.21-9.06,2.97-16.94,9.54-23.64,6.57-6.69,14.32-9.96,23.25-9.78,8.23,0,14.99,2.7,20.28,8.1,5.29,5.4,7.94,12.28,7.94,20.65.16,9.18-3.02,17.11-9.54,23.81-6.52,6.7-14.24,9.96-23.17,9.78-8.07.12-14.83-2.61-20.28-8.18-5.45-5.57-8.12-12.48-8.02-20.74Zm45.05-3.55c0-4.21-1.27-7.69-3.81-10.43-2.54-2.74-5.73-4.11-9.58-4.11-4.28,0-7.96,1.67-11.06,5.02-3.1,3.35-4.65,7.36-4.65,12.04,0,4.16,1.27,7.63,3.81,10.43,2.54,2.8,5.73,4.2,9.58,4.2,4.28,0,7.96-1.67,11.06-5.02,3.1-3.35,4.65-7.39,4.65-12.12Z"/>
        <path id="R-3" data-name="R" class="cls-4" d="m406.28,168.29l8.42,19.83h-16.51l-7.29-18.27h-9.78l-2.97,18.27h-15.15l9.86-60.61h24.53c7.38,0,13.11,1.73,17.2,5.2,4.09,3.46,6.13,8.31,6.13,14.55,0,11.26-4.81,18.27-14.43,21.04Zm-20.52-26.75l-2.49,14.89h11.95c3.42,0,5.92-.65,7.5-1.95,1.58-1.3,2.37-3.3,2.37-6.02,0-2.42-.67-4.18-2-5.28-1.34-1.1-3.47-1.65-6.41-1.65h-10.9Z"/>
        <path id="A-5" data-name="A" class="cls-4" d="m466.49,188.12l-1.84-10.65h-21.57l-5.21,10.65h-18.28l32.07-60.61h19.8l12.43,60.61h-17.4Zm-16.92-23.72h12.91l-3.37-19.39-9.54,19.39Z"/>
        <path id="Z" class="cls-4" d="m547.38,127.51l-1.76,11.43-32.55,34.72h27.82l-2.41,14.46h-49.46l1.84-11.69,31.67-34.55h-24.05l2.33-14.37h46.58Z"/>
        <path id="O-4" data-name="O" class="cls-4" d="m548.02,160.07c-.21-9.06,2.97-16.94,9.54-23.64,6.57-6.69,14.32-9.96,23.25-9.78,8.23,0,14.99,2.7,20.28,8.1,5.29,5.4,7.94,12.28,7.94,20.65.16,9.18-3.02,17.11-9.54,23.81-6.52,6.7-14.24,9.96-23.17,9.78-8.07.12-14.83-2.61-20.28-8.18-5.45-5.57-8.12-12.48-8.02-20.74Zm45.05-3.55c0-4.21-1.27-7.69-3.81-10.43-2.54-2.74-5.73-4.11-9.58-4.11-4.28,0-7.96,1.67-11.06,5.02-3.1,3.35-4.65,7.36-4.65,12.04,0,4.16,1.27,7.63,3.81,10.43,2.54,2.8,5.73,4.2,9.58,4.2,4.28,0,7.96-1.67,11.06-5.02,3.1-3.35,4.65-7.39,4.65-12.12Z"/>
      </g>
    </g>
  </g>
</svg>